<svg xmlns="http://www.w3.org/2000/svg" version="1.1" xmlns:xlink="http://www.w3.org/1999/xlink" xmlns:svgjs="http://svgjs.dev/svgjs" width="100%" height="100%" viewBox="0 0 1000 600"><rect width="1000" height="600" x="0" y="0" fill="#e2d3f4"/><g><rect width="333.3333333333333" height="333.3333333333333" rx="13.333333333333334" ry="13.333333333333334" y="210.87506094622609" fill="#013dc4" transform="matrix(0.6625927565152798,0,0,0.6625927565152798,0,49.8435839650401)" x="188.65283203124997"/><path d="M399.6027719102274 317.67256108962624L394.7961736559178 327.11510913951247Q393.857607132887 328.65094526810844 392.83371638048965 329.4188633324063Q391.80982562809237 330.1867813967043 390.18866527013 330.1867813967043L390.18866527013 330.1867813967043Q388.45373927301233 330.1867813967043 386.1499850801184 328.42341398979784Q383.8462308872245 326.6884879926803 380.2910546636228 324.583823668308Q376.7643198498099 322.50760075372466 371.8155145465563 320.7442333468182Q366.8382678335139 319.0093073497005 359.7847982058881 319.0093073497005L359.7847982058881 319.0093073497005Q353.12950831530566 319.0093073497005 348.01005455331915 320.8011161663958Q342.8906007913327 322.59292498309105 339.4491902068862 325.664597240283Q336.0077796224398 328.73626949747484 334.2728536253221 332.88871532664166Q332.5379276282045 337.0411611558085 332.5379276282045 341.847759410118L332.5379276282045 341.847759410118Q332.5379276282045 347.9911039245018 335.55271706581874 352.0297841145133Q338.567506503433 356.0684643045249 343.5447532164754 358.94104669319506Q348.52199992951785 361.8136290818653 354.8075514928457 363.91829340623747Q361.0931030561735 366.02295773060973 367.71995153696713 368.269829103926Q374.3183586079719 370.51670047724224 380.60391017129973 373.3324000463349Q386.9179031444164 376.14809961542744 391.86670844767 380.44275249353825Q396.8439551607124 384.7374053716492 399.85874459832667 390.99451552518815Q402.87353403594096 397.25162567872724 402.87353403594096 406.35287681114767L402.87353403594096 406.35287681114767Q402.87353403594096 415.9660733197667 399.6027719102274 424.4131720270443Q396.3320097845138 432.86027073432206 390.0180168113971 439.11738088786115Q383.7324652480693 445.3744910414001 374.57433129607125 448.95810867479065Q365.41619734407317 452.5417263081812 353.72677792087075 452.5417263081812L353.72677792087075 452.5417263081812Q339.50607302646387 452.5417263081812 327.7882121934726 447.3653897266171Q316.0419099506925 442.189053145053 307.76545970214767 433.37221611052075L307.76545970214767 433.37221611052075L313.48218306969926 423.9581094704233Q314.30698395357484 422.84889448865965 315.501523164705 422.08097642436167Q316.6676209660464 421.3130583600637 318.08969145548707 421.3130583600637L318.08969145548707 421.3130583600637Q320.25123859943693 421.3130583600637 323.0100553489519 423.6168125529575Q325.76887209846683 425.9205667458515 329.9213179276336 428.67938349536644Q334.0737637568004 431.4382002448814 339.96113558308485 433.74195443777523Q345.84850740936935 436.0457086306692 354.35248893622463 436.0457086306692L354.35248893622463 436.0457086306692Q361.40595856385045 436.0457086306692 366.95203347266914 434.11169276502983Q372.46966697169904 432.14923548960166 376.30925729318886 428.62250067578884Q380.14884761467874 425.0957658619759 382.1966291194733 420.1754019685111Q384.2444106242679 415.2550380750463 384.2444106242679 409.2254591998178L384.2444106242679 409.2254591998178Q384.2444106242679 402.57016930923544 381.2296211866537 398.3039578409133Q378.2148317490394 394.0661877823801 373.2944678555746 391.19360539370984Q368.3741039621098 388.3210230050397 362.088552398782 386.33012431982274Q355.7745594256653 384.3392256346058 349.17615235466053 382.2345613102335Q342.57774528365576 380.12989698586136 336.2637523105391 377.3710802363464Q329.97820074721125 374.61226348683147 325.05783685374644 370.20384496956535Q320.1374729602817 365.7954264522991 317.1226835226674 359.19701938129435Q314.10789408505315 352.5986123102896 314.10789408505315 342.87165016251527L314.10789408505315 342.87165016251527Q314.10789408505315 335.0787038803803 317.1226835226674 327.82614438423275Q320.1374729602817 320.5451434782965 325.8826377376221 314.9137443401113Q331.6278025149624 309.2823452019262 340.0749012222401 305.89781743705737Q348.52199992951785 302.54173108197733 359.47194269821114 302.54173108197733L359.47194269821114 302.54173108197733Q371.75863172697865 302.54173108197733 381.88377361179636 306.409762813256Q392.03735690640286 310.3062359543235 399.6027719102274 317.67256108962624L399.6027719102274 317.67256108962624Z " fill="#e2d3f4" transform="matrix(0.6625927565152798,0,0,0.6625927565152798,0,49.8435839650401)"/><path d="M662.8198790860682 348.4286239277624L659.553585286414 353.7363513522007Q658.5555510698529 355.55095901867537 656.5141174450688 355.55095901867537L656.5141174450688 355.55095901867537Q655.2892572701985 355.55095901867537 653.746840753695 354.643655185438Q652.2044242371916 353.7363513522007 649.9588472499291 352.6475867523159Q647.7132702626668 351.53613955660023 644.605754633829 350.6061531275319Q641.4982390049912 349.6534841026328 637.2565935846065 349.6534841026328L637.2565935846065 349.6534841026328Q633.5820130599955 349.6534841026328 630.6332756019741 350.6061531275319Q627.7072207397838 351.53613955660023 625.6204219233379 353.16928645642736Q623.533623106892 354.8024333562546 622.4221759111764 356.97996255602413Q621.3334113112916 359.13480915996286 621.3334113112916 361.67525989302726L621.3334113112916 361.67525989302726Q621.3334113112916 364.8508233093579 623.1707015735971 366.9829873174657Q625.0079918359028 369.09246872974245 628.0247770814168 370.6575678420769Q631.041562326931 372.1999843585803 634.8749210223586 373.37947934178885Q638.7309623136173 374.5589743249974 642.7684643715234 375.91993007485337Q646.8059664294295 377.2582032288784 650.6393251248572 378.89135012870554Q654.4726838202849 380.5244970285328 657.5121516616299 382.9742173782736Q660.528936907144 385.4239377280144 662.3662271694496 388.9851052734708Q664.2035174317552 392.52359022309645 664.2035174317552 397.51376130590177L664.2035174317552 397.51376130590177Q664.2035174317552 403.2297754552968 662.1620838069713 408.08385096311656Q660.1206501821872 412.9379264709363 656.1058307201121 416.49909401639275Q652.1136938538679 420.0602615618493 646.306949321149 422.10169518663326Q640.522887384261 424.1431288114172 632.9242177808984 424.1431288114172L632.9242177808984 424.1431288114172Q624.2594661734819 424.1431288114172 617.2505440617236 421.30780433255063Q610.2189393541342 418.49516244951485 605.3194986546526 414.0947388583138L605.3194986546526 414.0947388583138L608.7445706251236 408.53750287973526Q609.4023659042207 407.47142087568136 610.309669737458 406.904355979908Q611.1942909748644 406.3372910841347 612.668659703875 406.3372910841347L612.668659703875 406.3372910841347Q614.1430284328857 406.3372910841347 615.7761753327129 407.47142087568136Q617.4093222325401 408.628233263059 619.7456296031263 410.0118716087459Q622.0592543778814 411.3955099544328 625.3709133691976 412.52963974597947Q628.6825723605139 413.6864521333571 633.6500608474882 413.6864521333571L633.6500608474882 413.6864521333571Q637.9143888637037 413.6864521333571 641.0899522800343 412.5750049376413Q644.265515696365 411.4862403377565 646.3976797044727 409.60358488378904Q648.5298437125804 407.7209294298217 649.5505605249724 405.2712090800809Q650.5712773373644 402.8214887303401 650.5712773373644 400.05421203896617L650.5712773373644 400.05421203896617Q650.5712773373644 396.6064574726644 648.7339870750587 394.36088048540205Q646.8966968127532 392.1153034981396 643.8572289714082 390.52752178997434Q640.840443725894 388.93974008180896 636.9617198388045 387.7602450986004Q633.0829959517149 386.5807501153919 629.0454938938088 385.26515955719776Q625.0079918359028 383.94956899900365 621.1292679488132 382.2937395033456Q617.2505440617236 380.6152274118565 614.2337588162094 378.074776678792Q611.1942909748644 375.5570085415584 609.3570007125588 371.83706282528533Q607.5197104502532 368.1171171090124 607.5197104502532 362.80938968457394L607.5197104502532 362.80938968457394Q607.5197104502532 358.06872715590896 609.4930962875444 353.71366875636977Q611.4437995290047 349.33592776099965 615.2091104369396 346.02426876968343Q618.9517387490436 342.7126097783672 624.4409269401293 340.76190653690696Q629.9074325353843 338.8112032954467 636.9163546471426 338.8112032954467L636.9163546471426 338.8112032954467Q645.0820891462786 338.8112032954467 651.5919941497564 341.37433662434216Q658.0792165574032 343.9374699532376 662.8198790860682 348.4286239277624L662.8198790860682 348.4286239277624ZM708.1397055562727 424.1431288114172L708.1397055562727 424.1431288114172Q698.3408241573096 424.1431288114172 693.0557793287022 418.65394062033135Q687.7934170959257 413.1874350250765 687.7934170959257 402.9122191136638L687.7934170959257 402.9122191136638L687.7934170959257 352.284665219021L677.835757526146 352.284665219021Q676.5201669679519 352.284665219021 675.6355457305455 351.4907743649384Q674.7282418973082 350.71956610668656 674.7282418973082 349.08641920685943L674.7282418973082 349.08641920685943L674.7282418973082 343.3023572699715L688.2924342042062 341.5784799868205L691.6267757913535 316.01519448535885Q691.8082365580009 314.79033431048845 692.6928577954073 314.01912605223674Q693.6001616286445 313.24791779398504 694.9837999743315 313.24791779398504L694.9837999743315 313.24791779398504L702.3329610235539 313.24791779398504L702.3329610235539 341.73725815763703L726.013591071048 341.73725815763703L726.013591071048 352.284665219021L702.3329610235539 352.284665219021L702.3329610235539 401.9141848971027Q702.3329610235539 407.15386453404835 704.8734117566185 409.67163267128194Q707.391179893852 412.21208340434646 711.4059993559272 412.21208340434646L711.4059993559272 412.21208340434646Q713.6742589390205 412.21208340434646 715.3527710305095 411.59965331691126Q717.0312831219985 410.98722322947606 718.2561432968689 410.2613801628861Q719.4810034717393 409.5128545004653 720.3429421133148 408.9004244130301Q721.2048807548902 408.2879943255949 721.8399934381564 408.2879943255949L721.8399934381564 408.2879943255949Q722.996805825534 408.2879943255949 723.8814270629405 409.67163267128194L723.8814270629405 409.67163267128194L728.1457550791558 416.6125069955474Q724.3804441712209 420.1283093493421 719.0727167467826 422.1243777824642Q713.7649893223443 424.1431288114172 708.1397055562727 424.1431288114172ZM776.7318753490147 338.8112032954467L776.7318753490147 338.8112032954467Q784.1490841857299 338.8112032954467 790.4321632308984 341.28360624101833Q796.7379248718978 343.778691782421 801.2971266339152 348.47398911942423Q805.8790109917638 353.16928645642736 808.4421443206593 360.06479558903106Q811.0279602453857 366.9829873174657 811.0279602453857 375.7838344998678L811.0279602453857 375.7838344998678Q811.0279602453857 379.2315890661696 810.2794345829648 380.3657188577163Q809.5535915163748 381.49984864926284 807.512157891591 381.49984864926284L807.512157891591 381.49984864926284L752.4614978099162 381.49984864926284Q752.6429585765636 389.3480268067658 754.593661818024 395.1547713394847Q756.5443650594841 400.93883327637263 759.992119625786 404.8175571634622Q763.417191596257 408.69628105055176 768.1578541249219 410.6243016961811Q772.875834057756 412.52963974597947 778.7733089737987 412.52963974597947L778.7733089737987 412.52963974597947Q784.2398145690536 412.52963974597947 788.1865862436359 411.28209697527814Q792.1560405140492 410.0118716087459 795.0140475887467 408.53750287973526Q797.8720546634443 407.0631341507245 799.8000753090737 405.79290878419226Q801.705413358872 404.54536601349105 803.0890517045589 404.54536601349105L803.0890517045589 404.54536601349105Q804.9036593710337 404.54536601349105 805.8790109917638 405.92900435917795L805.8790109917638 405.92900435917795L809.9618782413318 411.2367317836163Q807.2626493374507 414.50302558327064 803.4973384295158 416.9073807413496Q799.7547101174118 419.3117358994285 795.4676995053655 420.87683501176286Q791.180688893319 422.4192515282663 786.5988045354707 423.1904597865181Q782.039602773453 423.9616680447698 777.5484487989281 423.9616680447698L777.5484487989281 423.9616680447698Q768.9744275748355 423.9616680447698 761.7386795047678 421.0809783742412Q754.5029314347003 418.17760610788184 749.2405692019236 412.5750049376413Q743.9782069691471 406.99508636323174 741.0294695111259 398.73862148077205Q738.1034146489355 390.4821565983125 738.1034146489355 379.79865396194293L738.1034146489355 379.79865396194293Q738.1034146489355 371.1339023545264 740.7572783611547 363.6259631344875Q743.4111420733739 356.1180239144487 748.3786305603483 350.6061531275319Q753.3688016431536 345.0942823406151 760.5591845215592 341.9414015201155Q767.7495673999651 338.8112032954467 776.7318753490147 338.8112032954467ZM777.0494316906477 349.49470593181616L777.0494316906477 349.49470593181616Q766.5247072250947 349.49470593181616 760.4684541382355 355.5736416145063Q754.4348836472072 361.67525989302726 752.9605149181966 372.44949291272053L752.9605149181966 372.44949291272053L797.962785046768 372.44949291272053Q797.962785046768 367.3912740424224 796.5564641052501 363.1723112178689Q795.1728257595632 358.97603098914624 792.4735968556822 355.91388055197024Q789.7970505476321 352.85173011479435 785.9183266605426 351.17321802330525Q782.039602773453 349.49470593181616 777.0494316906477 349.49470593181616ZM850.6998203536878 422.8275382532231L816.97080035309 340.1041112578099L828.901845760161 340.1041112578099Q830.6257230433118 340.1041112578099 831.7598528348585 341.0114150910472Q832.8939826264052 341.89603632845365 833.3929997346856 343.12089650332393L833.3929997346856 343.12089650332393L854.374400878299 396.3796315143551Q855.5312132656763 399.3056863765454 856.1663259489426 402.25442383456675Q856.8241212280395 405.1804786967572 857.391186123813 408.0384857714547L857.391186123813 408.0384857714547Q858.0489814029099 405.1804786967572 858.7975070653308 402.25442383456675Q859.5233501319208 399.3056863765454 860.6574799234672 396.3796315143551L860.6574799234672 396.3796315143551L881.8883896212208 343.12089650332393Q882.3874067295012 341.82798854096075 883.498853925217 340.9660498993853Q884.5876185251018 340.1041112578099 886.2207654249289 340.1041112578099L886.2207654249289 340.1041112578099L897.5847459362265 340.1041112578099L863.8557259356289 422.8275382532231L850.6998203536878 422.8275382532231ZM941.6797122315606 338.8112032954467L941.6797122315606 338.8112032954467Q949.0969210682758 338.8112032954467 955.3800001134443 341.28360624101833Q961.6857617544438 343.778691782421 966.2449635164612 348.47398911942423Q970.8268478743098 353.16928645642736 973.3899812032053 360.06479558903106Q975.9757971279316 366.9829873174657 975.9757971279316 375.7838344998678L975.9757971279316 375.7838344998678Q975.9757971279316 379.2315890661696 975.2272714655107 380.3657188577163Q974.501428398921 381.49984864926284 972.4599947741369 381.49984864926284L972.4599947741369 381.49984864926284L917.4093346924622 381.49984864926284Q917.5907954591096 389.3480268067658 919.54149870057 395.1547713394847Q921.4922019420301 400.93883327637263 924.939956508332 404.8175571634622Q928.3650284788027 408.69628105055176 933.1056910074678 410.6243016961811Q937.823670940302 412.52963974597947 943.7211458563445 412.52963974597947L943.7211458563445 412.52963974597947Q949.1876514515995 412.52963974597947 953.1344231261819 411.28209697527814Q957.1038773965952 410.0118716087459 959.9618844712927 408.53750287973526Q962.8198915459902 407.0631341507245 964.7479121916197 405.79290878419226Q966.6532502414179 404.54536601349105 968.0368885871048 404.54536601349105L968.0368885871048 404.54536601349105Q969.8514962535796 404.54536601349105 970.8268478743098 405.92900435917795L970.8268478743098 405.92900435917795L974.9097151238777 411.2367317836163Q972.2104862199967 414.50302558327064 968.4451753120618 416.9073807413496Q964.7025469999578 419.3117358994285 960.4155363879113 420.87683501176286Q956.128525775865 422.4192515282663 951.5466414180166 423.1904597865181Q946.987439655999 423.9616680447698 942.4962856814741 423.9616680447698L942.4962856814741 423.9616680447698Q933.9222644573815 423.9616680447698 926.6865163873138 421.0809783742412Q919.4507683172462 418.17760610788184 914.1884060844698 412.5750049376413Q908.9260438516931 406.99508636323174 905.9773063936718 398.73862148077205Q903.0512515314815 390.4821565983125 903.0512515314815 379.79865396194293L903.0512515314815 379.79865396194293Q903.0512515314815 371.1339023545264 905.7051152437007 363.6259631344875Q908.3589789559198 356.1180239144487 913.3264674428942 350.6061531275319Q918.3166385256995 345.0942823406151 925.5070214041052 341.9414015201155Q932.6974042825111 338.8112032954467 941.6797122315606 338.8112032954467ZM941.9972685731937 349.49470593181616L941.9972685731937 349.49470593181616Q931.4725441076407 349.49470593181616 925.4162910207815 355.5736416145063Q919.3827205297532 361.67525989302726 917.9083518007426 372.44949291272053L917.9083518007426 372.44949291272053L962.910621929314 372.44949291272053Q962.910621929314 367.3912740424224 961.5043009877961 363.1723112178689Q960.1206626421092 358.97603098914624 957.4214337382282 355.91388055197024Q954.7448874301781 352.85173011479435 950.8661635430885 351.17321802330525Q946.987439655999 349.49470593181616 941.9972685731937 349.49470593181616ZM996.140624821631 340.1041112578099L1010.6801687492593 340.1041112578099L1010.6801687492593 428.9518391275751Q1010.6801687492593 433.94201021038043 1009.3645781910652 438.2290208224267Q1008.0489876328711 442.5160314344731 1005.2363457498354 445.69159485080377Q1002.4237038667995 448.8671582671344 997.9779150839368 450.70444852944Q993.5321263010737 452.5417387917456 987.317095043398 452.5417387917456L987.317095043398 452.5417387917456Q984.617866139517 452.5417387917456 982.4176543439166 452.1334520667888Q980.2174425483161 451.72516534183194 978.0172307527155 450.9085918919184L978.0172307527155 450.9085918919184L978.6523434359817 443.08309633024646Q978.8338042026292 442.01701432619257 979.4008690984024 441.7221405803905Q979.9679339941758 441.4499494304192 981.1927941690462 441.4499494304192L981.1927941690462 441.4499494304192Q981.8505894481432 441.4499494304192 982.5764325147331 441.4953146220811Q983.3249581771538 441.517997217912 984.3683575853768 441.517997217912L984.3683575853768 441.517997217912Q990.742167013869 441.517997217912 993.44139591775 438.54657716405984Q996.140624821631 435.57515711020756 996.140624821631 428.9518391275751L996.140624821631 428.9518391275751L996.140624821631 340.1041112578099ZM1013.9464625489136 314.1325390313914L1013.9464625489136 314.1325390313914Q1013.9464625489136 316.26470303949907 1013.0845239073383 318.10199330180467Q1012.2225852657627 319.93928356411027 1010.793581728414 321.36828710145903Q1009.3645781910652 322.7972906388079 1007.4819227370976 323.61386408872147Q1005.5992672831303 324.43043753863503 1003.4897858708534 324.43043753863503L1003.4897858708534 324.43043753863503Q1001.3576218627459 324.43043753863503 999.5203316004402 323.61386408872147Q997.6830413381347 322.7972906388079 996.2540378007859 321.36828710145903Q994.8250342634369 319.93928356411027 994.0084608135235 318.10199330180467Q993.1918873636098 316.26470303949907 993.1918873636098 314.1325390313914L993.1918873636098 314.1325390313914Q993.1918873636098 312.02305761911464 994.0084608135235 310.09503697348526Q994.8250342634369 308.1896989236869 996.2540378007859 306.76069538633806Q997.6830413381347 305.3316918489893 999.5203316004402 304.51511839907573Q1001.3576218627459 303.6985449491621 1003.4897858708534 303.6985449491621L1003.4897858708534 303.6985449491621Q1005.5992672831303 303.6985449491621 1007.4819227370976 304.51511839907573Q1009.3645781910652 305.3316918489893 1010.793581728414 306.76069538633806Q1012.2225852657627 308.1896989236869 1013.0845239073383 310.09503697348526Q1013.9464625489136 312.02305761911464 1013.9464625489136 314.1325390313914ZM1069.473457143038 338.8112032954467L1069.473457143038 338.8112032954467Q1078.5238128795804 338.8112032954467 1085.827608737141 341.82798854096075Q1093.1540871905322 344.8447737864749 1098.2576712524924 350.40200976505355Q1103.3612553144521 355.9592457436322 1106.083166814164 363.830106496966Q1108.8277609097072 371.70096725029975 1108.8277609097072 381.43180086177006L1108.8277609097072 381.43180086177006Q1108.8277609097072 391.23068226073326 1106.083166814164 399.0561778224052Q1103.3612553144521 406.904355979908 1098.2576712524924 412.4615919584867Q1093.1540871905322 418.01882793706534 1085.827608737141 420.9902479909175Q1078.5238128795804 423.9616680447698 1069.473457143038 423.9616680447698L1069.473457143038 423.9616680447698Q1060.400418810665 423.9616680447698 1053.0966229531045 420.9902479909175Q1045.792827095544 418.01882793706534 1040.643877841922 412.4615919584867Q1035.4949285883004 406.904355979908 1032.7276518969265 399.0561778224052Q1029.9376926097216 391.23068226073326 1029.9376926097216 381.43180086177006L1029.9376926097216 381.43180086177006Q1029.9376926097216 371.70096725029975 1032.7276518969265 363.830106496966Q1035.4949285883004 355.9592457436322 1040.643877841922 350.40200976505355Q1045.792827095544 344.8447737864749 1053.0966229531045 341.82798854096075Q1060.400418810665 338.8112032954467 1069.473457143038 338.8112032954467ZM1069.473457143038 412.6203701293032L1069.473457143038 412.6203701293032Q1081.722058891742 412.6203701293032 1087.7556293827702 404.40927043850536Q1093.7891998737987 396.19817074770754 1093.7891998737987 381.49984864926284L1093.7891998737987 381.49984864926284Q1093.7891998737987 366.73347876332537 1087.7556293827702 358.4770138808657Q1081.722058891742 350.24323159423705 1069.473457143038 350.24323159423705L1069.473457143038 350.24323159423705Q1063.2584258853626 350.24323159423705 1058.676541527514 352.3527130065138Q1054.1173397654966 354.4848770146215 1051.0551893283205 358.4770138808657Q1047.9930388911444 362.49183334294094 1046.4733049704719 368.32126047149075Q1044.9762536456305 374.15068760004056 1044.9762536456305 381.49984864926284L1044.9762536456305 381.49984864926284Q1044.9762536456305 388.84900969848525 1046.4733049704719 394.6557542312041Q1047.9930388911444 400.462498763923 1051.0551893283205 404.40927043850536Q1054.1173397654966 408.37872470891875 1058.676541527514 410.4882061211955Q1063.2584258853626 412.6203701293032 1069.473457143038 412.6203701293032ZM1128.4255237076336 302.54173256178456L1142.9650676352617 302.54173256178456L1142.9650676352617 422.8275382532231L1128.4255237076336 422.8275382532231L1128.4255237076336 302.54173256178456ZM1166.6456976827558 340.1041112578099L1181.1625590145532 340.1041112578099L1181.1625590145532 392.8638291605604Q1181.1625590145532 402.25442383456675 1185.4949348182613 407.4033730881886Q1189.8273106219694 412.52963974597947 1198.5601100168788 412.52963974597947L1198.5601100168788 412.52963974597947Q1204.933919445371 412.52963974597947 1210.5592032114423 409.5128545004653Q1216.2071695733448 406.4960692549513 1220.9478321020101 401.09761144718914L1220.9478321020101 401.09761144718914L1220.9478321020101 340.1041112578099L1235.464693433807 340.1041112578099L1235.464693433807 422.8275382532231L1226.8226244222215 422.8275382532231Q1223.715108793384 422.8275382532231 1222.89853534347 419.81075300770897L1222.89853534347 419.81075300770897L1221.7644055519236 410.8964928461522Q1216.3659477441615 416.8620155496877 1209.6745819740358 420.49123088263696Q1202.9832162039106 424.1431288114172 1194.3184645964943 424.1431288114172L1194.3184645964943 424.1431288114172Q1187.5363684430454 424.1431288114172 1182.3647365935926 421.8975518241549Q1177.1704221483087 419.65197483689246 1173.654619794514 415.56910758732454Q1170.1388174407193 411.4862403377565 1168.3922575617376 405.6794958050376Q1166.6456976827558 399.87275127231874 1166.6456976827558 392.8638291605604L1166.6456976827558 392.8638291605604L1166.6456976827558 340.1041112578099ZM1319.662489158231 349.58543631514L1315.8291304628033 354.8024333562546Q1315.171335183706 355.7097371894919 1314.5135399046094 356.1860717019415Q1313.8557446255122 356.68508881022206 1312.6308844506416 356.68508881022206L1312.6308844506416 356.68508881022206Q1311.4060242757714 356.68508881022206 1309.9770207384227 355.66437199783Q1308.548017201074 354.643655185438 1306.347805405473 353.4187950105677Q1304.1475936098727 352.1939348356973 1300.994712789373 351.17321802330525Q1297.8645145647042 350.1525012109132 1293.2826302068556 350.1525012109132L1293.2826302068556 350.1525012109132Q1287.2490597158276 350.1525012109132 1282.5991275704864 352.30734781485194Q1277.926512829314 354.4848770146215 1274.7963146046454 358.5677442641895Q1271.6434337841456 362.65061151375744 1270.05565207598 368.4346734506454Q1268.467870367815 374.2414179833643 1268.467870367815 381.43180086177006L1268.467870367815 381.43180086177006Q1268.467870367815 388.93974008180896 1270.169065055135 394.7691672103588Q1271.892942338286 400.6212769347395 1275.0004579671236 404.568048609322Q1278.1079735959615 408.53750287973526 1282.5537623788246 410.6243016961811Q1286.9995511616871 412.7111005126269 1292.556787140266 412.7111005126269L1292.556787140266 412.7111005126269Q1297.8645145647042 412.7111005126269 1301.2895865351752 411.44087514609464Q1304.7146585056462 410.1706497795624 1307.0056006845703 408.628233263059Q1309.2965428634943 407.0631341507245 1310.7709115925054 405.79290878419226Q1312.2225977256849 404.54536601349105 1313.6969664546955 404.54536601349105L1313.6969664546955 404.54536601349105Q1315.5796219086633 404.54536601349105 1316.4869257419004 405.92900435917795L1316.4869257419004 405.92900435917795L1320.5697929914681 411.2367317836163Q1315.171335183706 417.8373671704178 1307.096331067894 420.8995176075938Q1298.9986443562511 423.9616680447698 1290.0163364072014 423.9616680447698L1290.0163364072014 423.9616680447698Q1282.2588886330223 423.9616680447698 1275.6128880545589 421.10366097007216Q1268.9442048802644 418.24565389537463 1264.0447641807827 412.82451349178166Q1259.1453234813011 407.4033730881886 1256.3326815982655 399.464464547362Q1253.5200397152298 391.54823860236627 1253.5200397152298 381.43180086177006L1253.5200397152298 381.43180086177006Q1253.5200397152298 372.1999843585803 1256.0831730441255 364.35180620107747Q1258.6689889688519 356.52631063940544 1263.6137948599953 350.85566168167225Q1268.5359181553076 345.162330128108 1275.817031417037 341.98676671177736Q1283.0754620829357 338.8112032954467 1292.4660567569422 338.8112032954467L1292.4660567569422 338.8112032954467Q1301.1308083643585 338.8112032954467 1307.8221741344837 341.6238451784824Q1314.5135399046094 344.43648706151805 1319.662489158231 349.58543631514L1319.662489158231 349.58543631514Z " fill="#013dc4" transform="matrix(0.6625927565152798,0,0,0.6625927565152798,0,49.8435839650401)"/></g></svg>